<svg xmlns="http://www.w3.org/2000/svg" viewBox="0 0 64 64">
  <defs>
    <linearGradient id="tile" x1="0" y1="0" x2="0" y2="1">
      <stop offset="0" stop-color="#16283f"/>
      <stop offset="1" stop-color="#070d18"/>
    </linearGradient>
    <radialGradient id="glow" cx=".5" cy=".15" r=".8">
      <stop offset="0" stop-color="#4cc3ff" stop-opacity=".55"/>
      <stop offset="1" stop-color="#4cc3ff" stop-opacity="0"/>
    </radialGradient>
    <linearGradient id="bubble" x1="0" y1="0" x2="0" y2="1">
      <stop offset="0" stop-color="#6ec6ff"/>
      <stop offset=".5" stop-color="#25a4f5"/>
      <stop offset="1" stop-color="#0a86e0"/>
    </linearGradient>
  </defs>
  <rect width="64" height="64" rx="14" fill="url(#tile)"/>
  <rect width="64" height="64" rx="14" fill="url(#glow)"/>
  <path d="M20 13h24a9 9 0 0 1 9 9v11a9 9 0 0 1-9 9H33l-12 10v-10h-1a9 9 0 0 1-9-9V22a9 9 0 0 1 9-9z" fill="url(#bubble)"/>
  <rect x="17" y="17" width="30" height="7" rx="3.5" fill="#fff" opacity=".28"/>
  <circle cx="26" cy="30" r="3.2" fill="#fff"/>
  <circle cx="33.5" cy="30" r="3.2" fill="#fff"/>
  <circle cx="41" cy="30" r="3.2" fill="#fff"/>
</svg>
